<?xml version="1.0" encoding="UTF-8"?>
<svg id="Layer_1" data-name="Layer 1" xmlns="http://www.w3.org/2000/svg" viewBox="0 0 1080 258">
  <defs>
    <style>
      .cls-1 {
        fill: #f2f1f0;
      }
    </style>
  </defs>
  <g>
    <path class="cls-1" d="M91.77,103.92c2.19,0,4.29.36,6.26,1-2.73-3.83-4.29-8.39-4.63-13.72,0-7.15,1.95-13.05,5.85-17.71,3.9-4.66,8.94-8.18,15.11-10.56,6.18-2.38,12.84-3.58,19.99-3.58,8.45,0,16.41,1.52,23.89,4.55.72.29,1.43.62,2.14.94.5-4.35,2.38-8.26,5.2-11.32-4.45-2.05-8.9-3.58-13.35-4.57-5.85-1.3-11.38-1.95-16.58-1.95-10.84,0-20.37,1.9-28.6,5.69-8.24,3.79-14.63,9.05-19.18,15.76-4.55,6.72-6.83,14.3-6.83,22.75,0,5.37.85,10.19,2.56,14.45,2.5-1.11,5.25-1.74,8.16-1.74Z"/>
    <path class="cls-1" d="M177.42,140.94c-4.66-3.46-10.08-6.34-16.25-8.61-6.18-2.27-12.84-4.28-19.99-6.01-8.89-2.38-16.85-4.98-23.89-7.8-2.76-1.1-5.29-2.32-7.62-3.66,1.43,2.77,2.25,5.9,2.25,9.23,0,2.27-.39,4.45-1.09,6.49,1.67.74,3.38,1.43,5.15,2.08,6.83,2.49,14.03,4.71,21.61,6.66,7.15,1.74,13.98,3.9,20.48,6.5,6.5,2.6,11.81,6.13,15.93,10.56,4.11,4.44,6.18,10.35,6.18,17.71,0,6.94-2.11,12.79-6.34,17.55-4.22,4.77-9.65,8.35-16.25,10.73-6.61,2.39-13.49,3.57-20.64,3.57-11.13,0-20.86-2.2-29.25-6.54-.4,4.3-2.17,8.2-4.84,11.28.1.04.19.1.29.14,10.4,4.55,21.23,6.83,32.5,6.83s20.85-1.79,29.42-5.36c8.56-3.57,15.28-8.66,20.15-15.28,4.88-6.61,7.31-14.47,7.31-23.57,0-7.8-1.35-14.3-4.06-19.5-2.71-5.2-6.39-9.53-11.05-13Z"/>
  </g>
  <g>
    <path class="cls-1" d="M394.06,175.39c-1.95,0-3.79.97-5.53,2.92-3.25,4.77-7.48,9.21-12.68,13.33-5.2,4.12-11.05,7.43-17.55,9.91-6.5,2.49-13.44,3.74-20.8,3.74-15.39,0-28.33-3.36-38.84-10.08-10.51-6.71-18.42-15.6-23.73-26.65-5.31-11.05-7.96-23.19-7.96-36.41,0-1.43.03-2.84.08-4.22h108.43c-.57-1.87-.89-3.86-.89-5.92,0-2.25.39-4.41,1.07-6.44h-107.35c.95-5.49,2.39-10.59,4.34-15.28,2.23-5.36,4.87-10.15,7.89-14.42-2.29.91-4.78,1.42-7.39,1.42-2.75,0-5.37-.56-7.76-1.55-.17.31-.36.59-.53.9-7.04,12.79-10.57,28.28-10.57,46.48,0,17.12,3.58,32.02,10.73,44.69,7.15,12.68,16.95,22.48,29.42,29.42,12.46,6.94,26.81,10.4,43.07,10.4,12.78,0,24.43-3.25,34.94-9.75,10.51-6.5,19.12-14.08,25.84-22.75.86-1.08,1.3-2.38,1.3-3.9s-.54-2.87-1.62-4.06c-1.09-1.19-2.39-1.79-3.9-1.79Z"/>
    <path class="cls-1" d="M293.3,67.15c0,2.17-.35,4.25-.98,6.2,4.69-3.81,9.68-6.81,14.95-8.97,7.15-2.92,13.98-4.39,20.48-4.39,9.32,0,18.31,2.01,26.98,6.01,8.67,4.01,16.09,9.91,22.27,17.71,4.49,5.67,7.62,12.34,9.42,19.96,2.54-1.16,5.36-1.82,8.34-1.82,1.42,0,2.81.15,4.15.43-1.15-5.11-2.7-9.85-4.68-14.18-4.23-9.21-9.75-16.9-16.58-23.08-6.83-6.18-14.58-10.73-23.24-13.65-8.67-2.92-17.55-4.39-26.65-4.39-12.57,0-24.43,3.41-35.59,10.24-.37.23-.72.49-1.09.72,1.42,2.76,2.23,5.88,2.23,9.19Z"/>
  </g>
  <g>
    <path class="cls-1" d="M593.31,109.73v10.1c2.34-.95,4.88-1.48,7.56-1.48,1.89,0,3.71.28,5.44.76v-10.68c0-11.48-2-21.89-6.01-31.2-4.01-9.31-10.3-16.68-18.85-22.1-8.56-5.41-19.67-8.13-33.32-8.13-8.02,0-16.09,1.57-24.21,4.71-8.13,3.14-15.55,7.48-22.27,13-5.73,4.72-10.46,10.06-14.3,15.96v-21.98c0-1.73-.6-3.25-1.79-4.55-1.19-1.3-2.76-1.95-4.71-1.95-1.74,0-3.25.65-4.55,1.95-1.3,1.3-1.95,2.82-1.95,4.55v134.33c2.18-.81,4.52-1.27,6.98-1.27,2.1,0,4.12.32,6.02.92v-82.95c0-9.32,2.98-17.77,8.94-25.35,5.96-7.58,13.49-13.65,22.59-18.2,9.1-4.55,18.42-6.83,27.95-6.83,11.05,0,19.99,2.28,26.81,6.83,6.83,4.55,11.81,10.62,14.95,18.2,3.14,7.59,4.71,16.04,4.71,25.35Z"/>
    <path class="cls-1" d="M600.87,158.66c-2.68,0-5.22-.53-7.56-1.48v50.71c0,1.74.59,3.25,1.79,4.55,1.19,1.3,2.76,1.95,4.71,1.95,1.73,0,3.25-.65,4.55-1.95,1.3-1.3,1.95-2.81,1.95-4.55v-50c-1.73.49-3.55.76-5.44.76Z"/>
  </g>
  <g>
    <path class="cls-1" d="M887.84,178.49c-3.25-7.03-4.92-15.41-4.92-25.2v-66.85c-1.85.56-3.82.87-5.86.87-2.52,0-4.92-.48-7.14-1.33v67.31c0,9.61,1.25,18.11,3.72,25.52,2.33-.94,4.88-1.48,7.55-1.48,2.34,0,4.57.42,6.66,1.15Z"/>
    <path class="cls-1" d="M988.36,177.34c2.45,0,4.78.46,6.95,1.26,2.42-7.36,3.64-15.79,3.64-25.31V58.7c0-1.73-.6-3.25-1.79-4.55-1.19-1.3-2.76-1.95-4.71-1.95s-3.52.65-4.71,1.95c-1.19,1.3-1.79,2.82-1.79,4.55v94.59c0,9.92-1.7,18.4-5.05,25.49,2.31-.92,4.82-1.44,7.45-1.44Z"/>
    <path class="cls-1" d="M968.2,197.49c0-1.18.12-2.33.32-3.45-8.81,6.63-20.22,9.95-34.25,9.95s-24.5-3.17-33.18-9.44c.14.96.24,1.94.24,2.94,0,3.89-1.12,7.51-3.03,10.59,10.04,5.5,22.02,8.26,35.97,8.26s26.61-2.85,36.79-8.54c-1.8-3.02-2.86-6.54-2.86-10.31Z"/>
  </g>
  <g>
    <path class="cls-1" d="M697.26,103.92c2.19,0,4.29.36,6.26,1-2.73-3.83-4.29-8.39-4.63-13.72,0-7.15,1.95-13.05,5.85-17.71,3.9-4.66,8.94-8.18,15.11-10.56,6.18-2.38,12.84-3.58,19.99-3.58,8.45,0,16.41,1.52,23.89,4.55.72.29,1.43.62,2.14.94.5-4.35,2.38-8.26,5.2-11.32-4.45-2.05-8.9-3.58-13.35-4.57-5.85-1.3-11.38-1.95-16.58-1.95-10.84,0-20.37,1.9-28.6,5.69-8.24,3.79-14.63,9.05-19.18,15.76-4.55,6.72-6.83,14.3-6.83,22.75,0,5.37.85,10.19,2.56,14.45,2.5-1.11,5.25-1.74,8.16-1.74Z"/>
    <path class="cls-1" d="M782.91,140.94c-4.66-3.46-10.08-6.34-16.25-8.61-6.18-2.27-12.84-4.28-19.99-6.01-8.89-2.38-16.85-4.98-23.89-7.8-2.76-1.1-5.29-2.32-7.62-3.66,1.43,2.77,2.25,5.9,2.25,9.23,0,2.27-.39,4.45-1.09,6.49,1.67.74,3.38,1.43,5.15,2.08,6.83,2.49,14.03,4.71,21.61,6.66,7.15,1.74,13.98,3.9,20.48,6.5,6.5,2.6,11.81,6.13,15.93,10.56,4.11,4.44,6.18,10.35,6.18,17.71,0,6.94-2.11,12.79-6.34,17.55-4.22,4.77-9.65,8.35-16.25,10.73-6.61,2.39-13.49,3.57-20.64,3.57-11.13,0-20.86-2.2-29.25-6.54-.4,4.3-2.17,8.2-4.84,11.28.1.04.19.1.29.14,10.4,4.55,21.23,6.83,32.5,6.83s20.85-1.79,29.42-5.36c8.56-3.57,15.28-8.66,20.15-15.28,4.88-6.61,7.31-14.47,7.31-23.57,0-7.8-1.35-14.3-4.06-19.5-2.71-5.2-6.39-9.53-11.05-13Z"/>
  </g>
</svg>